<svg xmlns="http://www.w3.org/2000/svg" width="80.75mm" height="116.22" viewBox="0 0 893.45 340.23" shape-rendering="geometricPrecision" text-rendering="geometricPrecision" image-rendering="optimizeQuality" fill-rule="evenodd" clip-rule="evenodd"><defs><style>.fil1{fill:#fefefe;fill-rule:nonzero}</style></defs><g id="Layer_x0020_1"><rect x="4.15" y="4.15" width="885.16" height="331.93" rx="75.5" ry="60.87" stroke="#b3b3b3" stroke-width="8.3" stroke-miterlimit="22.926"/><path class="fil1" d="M201.94 168.74c-.19-21.13 17.3-31.41 18.1-31.89-9.91-14.45-25.26-16.42-30.66-16.58-12.9-1.35-25.41 7.72-31.98 7.72-6.7 0-16.82-7.58-27.72-7.36-14.03.22-27.16 8.34-34.36 20.95-14.86 25.72-3.78 63.52 10.45 84.31 7.12 10.18 15.44 21.55 26.33 21.15 10.65-.44 14.63-6.8 27.49-6.8 12.74 0 16.48 6.8 27.59 6.54 11.43-.18 18.63-10.23 25.5-20.5 8.23-11.67 11.53-23.16 11.67-23.75-.27-.09-22.21-8.46-22.43-33.79zM180.96 106.59c5.73-7.17 9.65-16.92 8.56-26.81-8.3.37-18.67 5.73-24.64 12.75-5.28 6.18-10.01 16.31-8.79 25.82 9.32.69 18.88-4.7 24.86-11.76zM330.64 209.2l-7.38-22.78c-.78-2.33-2.25-7.81-4.4-16.44h-.26c-.86 3.71-2.24 9.19-4.14 16.44l-7.25 22.78h23.43zm25.5 36.38h-14.89l-8.16-25.63h-28.35l-7.77 25.63h-14.5l28.09-87.25h17.35l28.22 87.25zM414.14 213.86c0-6.12-1.38-11.17-4.14-15.14-3.02-4.14-7.08-6.22-12.17-6.22-3.45 0-6.58 1.15-9.38 3.43-2.81 2.29-4.64 5.29-5.5 9-.43 1.73-.65 3.15-.65 4.26v10.49c0 4.58 1.4 8.44 4.21 11.59 2.8 3.15 6.45 4.72 10.94 4.72 5.26 0 9.36-2.03 12.3-6.08 2.93-4.06 4.4-9.41 4.4-16.06zm14.24-.51c0 10.7-2.89 19.16-8.67 25.37-5.18 5.52-11.61 8.29-19.29 8.29-8.29 0-14.24-2.98-17.86-8.93h-.26v33.14h-13.98v-67.84c0-6.73-.18-13.63-.52-20.71h12.3l.78 9.97h.26c4.66-7.51 11.74-11.26 21.23-11.26 7.43 0 13.61 2.93 18.58 8.8 4.96 5.88 7.44 13.6 7.44 23.18zM486.5 213.86c0-6.12-1.38-11.17-4.15-15.14-3.02-4.14-7.07-6.22-12.17-6.22-3.46 0-6.58 1.15-9.39 3.43-2.8 2.29-4.63 5.29-5.5 9-.43 1.73-.65 3.15-.65 4.26v10.49c0 4.58 1.4 8.44 4.2 11.59 2.8 3.15 6.45 4.72 10.95 4.72 5.26 0 9.36-2.03 12.29-6.08 2.93-4.06 4.4-9.41 4.4-16.06zm14.24-.51c0 10.7-2.89 19.16-8.68 25.37-5.17 5.52-11.6 8.29-19.28 8.29-8.29 0-14.24-2.98-17.86-8.93h-.25v33.14h-13.98v-67.84c0-6.73-.18-13.63-.52-20.71h12.3l.78 9.97h.26c4.66-7.51 11.73-11.26 21.23-11.26 7.41 0 13.61 2.93 18.58 8.8 4.96 5.88 7.44 13.6 7.44 23.18zM581.65 221.12c0 7.42-2.57 13.46-7.75 18.12-5.69 5.1-13.6 7.64-23.77 7.64-9.39 0-16.92-1.81-22.62-5.43l3.24-11.66c6.14 3.71 12.87 5.57 20.21 5.57 5.26 0 9.36-1.19 12.31-3.57 2.93-2.37 4.39-5.56 4.39-9.53 0-3.54-1.2-6.53-3.62-8.95-2.41-2.42-6.43-4.67-12.04-6.75-15.28-5.7-22.91-14.04-22.91-25.02 0-7.17 2.68-13.05 8.03-17.63 5.34-4.58 12.46-6.87 21.36-6.87 7.94 0 14.53 1.38 19.8 4.14l-3.5 11.4c-4.92-2.67-10.48-4.02-16.7-4.02-4.92 0-8.76 1.21-11.51 3.63-2.33 2.16-3.5 4.79-3.5 7.9 0 3.45 1.33 6.3 4.01 8.54 2.33 2.07 6.55 4.32 12.69 6.73 7.51 3.02 13.02 6.56 16.57 10.61 3.53 4.06 5.3 9.11 5.3 15.15zM627.87 193.16h-15.41v30.55c0 7.77 2.72 11.65 8.16 11.65 2.5 0 4.57-.22 6.21-.65l.39 10.62c-2.76 1.03-6.38 1.55-10.87 1.55-5.52 0-9.84-1.69-12.95-5.05-3.1-3.37-4.66-9.02-4.66-16.96v-31.71h-9.18v-10.49h9.18v-11.52l13.73-4.14v15.67h15.41v10.49zM682.89 214.06c0-5.8-1.25-10.78-3.76-14.94-2.93-5.02-7.12-7.53-12.55-7.53-5.62 0-9.88 2.51-12.82 7.53-2.51 4.16-3.75 9.21-3.75 15.2 0 5.8 1.24 10.78 3.75 14.93 3.02 5.02 7.25 7.53 12.69 7.53 5.34 0 9.53-2.55 12.55-7.65 2.58-4.24 3.88-9.27 3.88-15.06zm14.5-.46c0 9.67-2.76 17.61-8.28 23.82-5.79 6.39-13.47 9.58-23.05 9.58-9.23 0-16.58-3.06-22.06-9.19-5.48-6.13-8.22-13.85-8.22-23.17 0-9.75 2.82-17.74 8.48-23.95 5.65-6.22 13.27-9.32 22.85-9.32 9.24 0 16.66 3.06 22.27 9.19 5.35 5.95 8.03 13.63 8.03 23.04zM742.83 194.96c-1.38-.26-2.85-.38-4.41-.38-4.92 0-8.72 1.86-11.4 5.57-2.33 3.28-3.49 7.42-3.49 12.42v33.01h-13.97l.13-43.1c0-7.26-.18-13.86-.52-19.81h12.18l.51 12.04h.38c1.47-4.13 3.81-7.46 6.99-9.96 3.11-2.25 6.48-3.37 10.11-3.37 1.29 0 2.46.09 3.49.26v13.33zM792.02 207.52c.09-4.14-.82-7.72-2.71-10.74-2.42-3.88-6.14-5.83-11.14-5.83-4.57 0-8.29 1.89-11.13 5.7-2.33 3.02-3.72 6.65-4.14 10.87h29.12zm13.33 3.63c0 2.5-.16 4.62-.51 6.34H762.9c.16 6.22 2.19 10.97 6.08 14.25 3.53 2.93 8.11 4.4 13.72 4.4 6.21 0 11.87-.99 16.97-2.98l2.19 9.71c-5.95 2.59-12.98 3.88-21.09 3.88-9.76 0-17.42-2.87-22.99-8.61-5.55-5.74-8.35-13.44-8.35-23.11 0-9.49 2.58-17.39 7.78-23.69 5.43-6.73 12.77-10.09 22-10.09 9.07 0 15.93 3.36 20.59 10.09 3.7 5.36 5.55 11.96 5.55 19.81zM289.12 86.71c1.48-.89 3.17-1.64 5.06-2.26 1.88-.61 4.1-.92 6.65-.92 4.11 0 7.35.97 9.73 2.93 2.37 1.95 3.56 4.58 3.56 7.89 0 2.63-.79 4.83-2.38 6.62-1.59 1.78-3.62 2.96-6.08 3.56v.19c1.36.21 2.65.58 3.85 1.12 1.21.53 2.27 1.24 3.18 2.13.91.89 1.63 1.93 2.16 3.12.53 1.19.79 2.5.79 3.94 0 2.37-.48 4.37-1.43 5.98-.95 1.61-2.2 2.92-3.75 3.94-1.54 1.01-3.27 1.74-5.18 2.19-1.91.45-3.82.67-5.72.67-2.04 0-4.06-.21-6.04-.64-1.99-.42-3.84-1.13-5.53-2.1l1.72-5.28c1.1.55 2.52 1.08 4.27 1.59 1.73.51 3.5.76 5.27.76 2.93 0 5.19-.66 6.77-1.97 1.59-1.32 2.39-3.08 2.39-5.28 0-1.49-.32-2.7-.95-3.65a6.99 6.99 0 00-2.48-2.26c-1.02-.55-2.15-.93-3.4-1.14-1.25-.21-2.49-.32-3.72-.32H295v-5.22h2.86c1.31 0 2.53-.16 3.66-.51 1.12-.33 2.1-.81 2.93-1.43.82-.62 1.47-1.35 1.94-2.19.46-.85.7-1.8.7-2.86 0-1.91-.68-3.4-2.04-4.48-1.36-1.08-3.18-1.62-5.47-1.62-1.57 0-3.14.26-4.71.76-1.57.51-2.97 1.06-4.2 1.66l-1.52-4.9zM342.79 111.71c-3.83 0-6.69.49-8.57 1.46-1.87.97-2.81 2.57-2.81 4.77 0 1.62.44 2.82 1.32 3.63.88.8 2 1.21 3.35 1.21a6.983 6.983 0 004.64-1.78c.61-.55 1.11-1.22 1.49-2 .38-.79.56-1.62.56-2.51v-4.77zm.96 15.39l-.51-3.56h-.19c-2.07 2.84-5.08 4.26-9.03 4.26-1.4 0-2.67-.23-3.82-.7-1.14-.47-2.14-1.1-2.99-1.91-.85-.8-1.51-1.76-1.97-2.86-.47-1.1-.7-2.31-.7-3.63 0-3.86 1.57-6.75 4.71-8.68 3.14-1.93 7.59-2.89 13.36-2.89v-.58c0-4.07-2.14-6.1-6.41-6.1-3.05 0-5.74.76-8.06 2.29l-1.4-4.51c2.83-1.78 6.37-2.67 10.6-2.67 8.08 0 12.13 4.26 12.13 12.79v11.38c0 3.18.15 5.64.45 7.38h-6.17zM382.62 96.19v5.66h-12.86v25.25h-6.86V96.19zM414.92 111.52c0-1.53-.19-2.93-.54-4.23-.36-1.29-.89-2.4-1.59-3.31a7.75 7.75 0 00-2.54-2.16c-1-.53-2.11-.8-3.34-.8-.97 0-1.93.21-2.86.64-.93.42-1.75 1-2.45 1.71-.7.72-1.26 1.59-1.68 2.61-.43 1.02-.64 2.1-.64 3.24v5.15c0 1.14.18 2.2.54 3.18.36.98.87 1.83 1.52 2.54.66.72 1.44 1.29 2.36 1.69.91.4 1.92.6 3.02.6 2.59 0 4.6-.99 6.04-2.96 1.44-1.97 2.16-4.61 2.16-7.92zm6.99-.26c0 2.46-.34 4.71-1.02 6.74-.68 2.03-1.62 3.77-2.83 5.21-1.2 1.44-2.65 2.57-4.32 3.37-1.68.8-3.53 1.21-5.57 1.21-4.07 0-7-1.46-8.78-4.39h-.13v16.28h-6.87v-33.32c0-1.66-.02-3.32-.06-5-.04-1.67-.1-3.4-.18-5.18h6.04l.39 4.9h.13c2.29-3.69 5.76-5.53 10.43-5.53 1.82 0 3.51.38 5.05 1.14 1.55.77 2.9 1.83 4.04 3.21 1.15 1.38 2.05 3.03 2.7 4.96.66 1.93.98 4.06.98 6.39zM458.82 96.19l-7.83 21.44c-1.86 5.09-3.67 9.25-5.44 12.5-1.76 3.24-3.45 5.6-5.05 7.09-2.38 2.12-4.9 3.41-7.57 3.87l-1.65-5.78c1.78-.47 3.48-1.38 5.09-2.74 1.61-1.36 2.9-3.05 3.88-5.09.34-.67.5-1.14.5-1.4 0-.25-.13-.74-.38-1.46l-11.2-28.43h7.57l5.85 17.24c.3.81.6 1.72.89 2.73.3 1.02.61 2.14.95 3.37h.13c.21-.68.45-1.54.7-2.58.26-1.04.59-2.23 1.02-3.59l5.22-17.17h7.32zM470.71 109.03h3.18c2.33 0 4.14-.42 5.4-1.27 1.27-.85 1.91-1.89 1.91-3.12 0-1.27-.54-2.29-1.63-3.05-1.08-.76-2.57-1.15-4.48-1.15-1.23 0-2.47.2-3.71.6-1.25.4-2.41.9-3.47 1.5l-1.78-4.45c1.78-.97 3.55-1.64 5.31-2 1.75-.36 3.52-.54 5.3-.54 1.41 0 2.82.14 4.24.41 1.41.27 2.68.74 3.78 1.4a8.3 8.3 0 012.7 2.57c.7 1.06 1.05 2.37 1.05 3.94 0 .98-.19 1.83-.58 2.58-.37.74-.89 1.4-1.52 1.97-.63.57-1.35 1.04-2.13 1.4-.78.36-1.59.63-2.38.8v.19c1.01.13 2 .39 2.96.77.95.38 1.81.88 2.57 1.5a7.35 7.35 0 011.84 2.23c.46.87.69 1.85.69 2.96 0 1.82-.43 3.35-1.33 4.58-.88 1.23-2.02 2.2-3.41 2.93-1.37.72-2.89 1.24-4.55 1.56-1.65.32-3.27.48-4.83.48-1.91 0-3.8-.2-5.66-.6-1.87-.4-3.55-1.03-5.03-1.88l1.79-4.52c1.1.6 2.36 1.09 3.78 1.5 1.42.4 2.87.6 4.35.6 2.33 0 4.12-.46 5.38-1.37 1.24-.91 1.87-2.04 1.87-3.4 0-.89-.21-1.64-.63-2.26-.42-.62-1.02-1.12-1.78-1.49-.77-.38-1.65-.65-2.68-.8a22.65 22.65 0 00-3.3-.22h-3.24v-4.33zM507.4 96.19v10.94c0 2.5-.04 4.75-.13 6.74-.09 1.99-.19 4.09-.32 6.3l.13.12c.81-1.61 1.6-3.19 2.38-4.74.79-1.55 1.59-3.13 2.4-4.74l7.63-14.63h8.9v30.91h-6.49v-10.94c0-2.29.06-4.58.17-6.87.1-2.29.22-4.6.35-6.93h-.32c-.72 1.91-1.43 3.56-2.16 4.96-.72 1.4-1.44 2.84-2.15 4.33-1.32 2.54-2.62 5.09-3.92 7.63-1.29 2.54-2.66 5.15-4.1 7.82h-8.9V96.18h6.54zM564.64 96.19v5.66h-9.41v25.25h-6.75v-25.25h-9.35v-5.66zM593.13 108.4c0-2.42-.58-4.38-1.74-5.89-1.17-1.5-2.86-2.26-5.06-2.26-2 0-3.69.76-5.08 2.29-1.4 1.53-2.2 3.48-2.42 5.85h14.31zm6.56 1.78c0 .59-.03 1.15-.06 1.68-.04.53-.1 1.01-.19 1.43h-20.61c.09 2.93 1.01 5.18 2.77 6.77 1.75 1.59 4.08 2.38 6.97 2.38 3.01 0 5.79-.49 8.34-1.46l1.07 4.77c-2.93 1.27-6.38 1.91-10.37 1.91-2.41 0-4.57-.37-6.48-1.11-1.91-.74-3.52-1.79-4.84-3.15-1.31-1.36-2.32-2.99-3.02-4.9-.69-1.91-1.04-4.05-1.04-6.42 0-2.38.35-4.57 1.04-6.58.7-2.01 1.69-3.77 2.96-5.25 1.28-1.48 2.82-2.65 4.61-3.5 1.81-.85 3.82-1.27 6.02-1.27 1.95 0 3.71.35 5.31 1.05 1.59.7 2.95 1.7 4.06 2.99 1.13 1.29 1.98 2.84 2.57 4.64.6 1.81.9 3.81.9 6.01zM633.96 122.45c.84.09 1.56.15 2.12.19.58.04 1.24.07 2.01.07.93 0 1.88-.06 2.86-.19.97-.13 1.87-.37 2.68-.73.81-.35 1.45-.84 1.93-1.45.49-.61.74-1.42.74-2.43 0-1.77-.79-2.99-2.36-3.66-1.57-.67-3.69-1.01-6.36-1.01h-3.62v9.22zm0-13.67h3.5c1.06 0 2.07-.07 3.02-.22.96-.15 1.79-.38 2.51-.7.73-.32 1.28-.74 1.69-1.27.4-.53.6-1.18.6-1.94 0-1.4-.57-2.43-1.75-3.08-1.17-.66-3-.99-5.49-.99-.72 0-1.35.02-1.88.06-.53.04-1.25.11-2.19.19v7.95zm-6.61-12.34c1.23-.21 2.79-.38 4.7-.51 1.91-.13 3.85-.19 5.85-.19 1.27 0 2.7.08 4.29.23 1.59.14 3.11.49 4.55 1.02 1.45.53 2.65 1.33 3.62 2.38.97 1.06 1.47 2.5 1.47 4.32 0 .93-.18 1.77-.51 2.51-.35.74-.79 1.39-1.37 1.94-.58.55-1.23 1.01-1.97 1.37-.74.36-1.51.63-2.32.79l.07.19c2.24.38 4.07 1.19 5.47 2.41 1.4 1.23 2.1 2.93 2.1 5.09 0 2.17-.6 3.88-1.78 5.15-1.19 1.28-2.65 2.23-4.39 2.86-1.74.64-3.57 1.04-5.51 1.21-1.92.17-3.65.25-5.17.25-1.7 0-3.37-.04-4.99-.13-1.64-.08-3-.17-4.1-.25V96.42z"/></g></svg>