<svg xmlns="http://www.w3.org/2000/svg" width="80.75mm" height="116.22" viewBox="0 0 589.48 224.48" shape-rendering="geometricPrecision" text-rendering="geometricPrecision" image-rendering="optimizeQuality" fill-rule="evenodd" clip-rule="evenodd"><defs><linearGradient id="id0" gradientUnits="userSpaceOnUse" x1="136.05" y1="112.24" x2="34.93" y2="112.24"><stop offset="0" stop-color="#ffe400"/><stop offset="1" stop-color="#faa800"/></linearGradient><linearGradient id="id1" gradientUnits="userSpaceOnUse" x1="110.08" y1="122.04" x2="11.72" y2="219.27"><stop offset="0" stop-color="#ee4c3f"/><stop offset="1" stop-color="#d40064"/></linearGradient><linearGradient id="id2" gradientUnits="userSpaceOnUse" x1="11.28" y1="4.76" x2="91.59" y2="84.15"><stop offset="0" stop-color="#109d74"/><stop offset=".4" stop-color="#42ae6f"/><stop offset="1" stop-color="#75bf6a"/></linearGradient><style>.fil1{fill:#fefefe;fill-rule:nonzero}</style></defs><g id="Layer_x0020_1"><rect x="2.74" y="2.74" width="584" height="219" rx="49.81" ry="40.16" stroke="#b3b3b3" stroke-width="5.48" stroke-miterlimit="22.926"/><path class="fil1" d="M465.33 155.5h8.07v-54.08h-8.07v54.08zm72.71-34.6l-9.25 23.45h-.28l-9.6-23.45h-8.7l14.4 32.77-8.21 18.23h8.42l22.19-51h-8.98zm-45.78 28.46c-2.65 0-6.33-1.32-6.33-4.59 0-4.17 4.59-5.77 8.56-5.77 3.55 0 5.22.77 7.38 1.81-.63 5.01-4.94 8.56-9.6 8.56zm.97-29.64c-5.84 0-11.9 2.58-14.4 8.28l7.16 2.99c1.53-2.99 4.38-3.97 7.38-3.97 4.18 0 8.42 2.51 8.49 6.96v.56c-1.46-.83-4.59-2.09-8.42-2.09-7.72 0-15.59 4.24-15.59 12.17 0 7.24 6.33 11.9 13.43 11.9 5.43 0 8.42-2.44 10.3-5.29h.28v4.17h7.79v-20.73c0-9.6-7.16-14.96-16.42-14.96zm-49.89 7.77h-11.48v-18.54h11.48c6.03 0 9.46 5 9.46 9.27 0 4.19-3.43 9.27-9.46 9.27zm-.21-26.06h-19.34v54.08h8.07v-20.49h11.27c8.95 0 17.74-6.48 17.74-16.79 0-10.32-8.8-16.8-17.74-16.8zm-105.47 47.95c-5.58 0-10.25-4.67-10.25-11.08 0-6.48 4.67-11.22 10.25-11.22 5.51 0 9.83 4.74 9.83 11.22 0 6.41-4.32 11.08-9.83 11.08zm9.27-25.44h-.28c-1.81-2.16-5.3-4.11-9.69-4.11-9.2 0-17.63 8.08-17.63 18.47 0 10.31 8.43 18.33 17.63 18.33 4.39 0 7.88-1.95 9.69-4.18h.28v2.65c0 7.04-3.76 10.8-9.83 10.8-4.95 0-8.01-3.55-9.27-6.55l-7.04 2.93c2.02 4.88 7.39 10.87 16.31 10.87 9.48 0 17.49-5.58 17.49-19.17v-33.03h-7.67v3zm13.24 31.57h8.08v-54.08h-8.08v54.08zm20-17.84c-.21-7.11 5.5-10.73 9.62-10.73 3.21 0 5.92 1.6 6.83 3.9l-16.44 6.83zm25.09-6.13c-1.53-4.11-6.2-11.71-15.75-11.71-9.48 0-17.35 7.46-17.35 18.4 0 10.31 7.81 18.4 18.26 18.4 8.43 0 13.31-5.16 15.33-8.15l-6.27-4.18c-2.09 3.07-4.95 5.09-9.06 5.09s-7.04-1.88-8.92-5.58l24.6-10.18-.83-2.09zm-196-6.06v7.81h18.68c-.56 4.39-2.02 7.6-4.25 9.83-2.72 2.72-6.97 5.71-14.43 5.71-11.5 0-20.49-9.27-20.49-20.77s8.99-20.77 20.49-20.77c6.2 0 10.73 2.44 14.08 5.58l5.51-5.5c-4.67-4.46-10.87-7.88-19.58-7.88-15.75 0-28.99 12.82-28.99 28.57s13.24 28.57 28.99 28.57c8.5 0 14.91-2.79 19.93-8.01 5.16-5.16 6.76-12.4 6.76-18.26 0-1.81-.14-3.49-.42-4.88h-26.27zm47.93 23.9c-5.58 0-10.39-4.6-10.39-11.15 0-6.62 4.81-11.15 10.39-11.15 5.57 0 10.38 4.53 10.38 11.15 0 6.55-4.81 11.15-10.38 11.15zm0-29.55c-10.18 0-18.47 7.74-18.47 18.4 0 10.59 8.29 18.4 18.47 18.4 10.17 0 18.47-7.81 18.47-18.4 0-10.66-8.29-18.4-18.47-18.4zm40.29 29.55c-5.57 0-10.38-4.6-10.38-11.15 0-6.62 4.81-11.15 10.38-11.15 5.57 0 10.38 4.53 10.38 11.15 0 6.55-4.81 11.15-10.38 11.15zm0-29.55c-10.18 0-18.47 7.74-18.47 18.4 0 10.59 8.29 18.4 18.47 18.4 10.17 0 18.47-7.81 18.47-18.4 0-10.66-8.29-18.4-18.47-18.4zM190.9 68.83c.05 4.11-.77 7.42-2.46 9.93h13.12V59.18H190.9v9.65zm-5.98 18.63h-3.19v-8.7h2.54c2.25-1.94 3.35-5.24 3.3-9.93V56h17.33v22.77h2.9v8.7h-3.19v-5.51h-19.69v5.51z"/><path class="fil1" d="M190.9 68.83l-.43.01v.35c0 3.89-.81 6.99-2.39 9.34l-.45.67H202V58.76h-11.52v10.08l.43-.01h.43v-9.21h9.79v18.71h-12.69v.43l.36.24c1.7-2.53 2.54-5.82 2.54-9.82v-.36l-.43.01h.43-.43zm-5.98 18.63v-.43h-2.76V79.2h2.27l.12-.1c2.34-2.02 3.45-5.38 3.45-9.98V56.43h16.46V79.2h2.9v7.83h-2.33v-5.51h-20.55v5.94h.43v-.43.43h.43v-5.08h18.82v5.51h4.06v-9.56h-2.9V55.56h-18.19V69.11c0 4.48-1.09 7.55-3.15 9.32l.28.33v-.43h-2.97v9.56h4.05v-.43h-.43zM217.24 76.43c1.92 1.94 4.27 2.92 7.05 2.92 2.78 0 5.13-.97 7.05-2.92 1.92-1.94 2.89-4.43 2.89-7.45 0-3.02-.96-5.5-2.89-7.45-1.92-1.94-4.27-2.92-7.05-2.92-2.78 0-5.13.97-7.05 2.92s-2.88 4.43-2.88 7.45c0 3.02.96 5.51 2.88 7.45zm16.57 2.17c-2.55 2.62-5.72 3.93-9.52 3.93-3.79 0-6.97-1.31-9.51-3.93-2.55-2.62-3.82-5.83-3.82-9.62 0-3.79 1.27-7 3.82-9.62 2.55-2.62 5.72-3.94 9.51-3.94 3.77 0 6.94 1.32 9.5 3.95 2.56 2.64 3.84 5.84 3.84 9.61 0 3.79-1.28 7-3.82 9.62z"/><path class="fil1" d="M217.24 76.43l-.31.3c1.99 2.02 4.48 3.05 7.36 3.04 2.88.01 5.37-1.02 7.36-3.04 2.01-2.03 3.01-4.64 3.01-7.75 0-3.11-1.01-5.73-3.01-7.75-1.99-2.02-4.48-3.05-7.36-3.04-2.88-.01-5.37 1.02-7.36 3.04-2 2.02-3.01 4.64-3.01 7.75 0 3.11 1.01 5.73 3.01 7.75l.31-.3.31-.3c-1.84-1.87-2.75-4.22-2.76-7.15.01-2.93.92-5.28 2.76-7.15 1.85-1.87 4.06-2.78 6.74-2.79 2.68 0 4.9.92 6.74 2.79l.01.01-.01-.01c1.84 1.87 2.76 4.22 2.76 7.15-.01 2.93-.92 5.28-2.76 7.15-1.85 1.87-4.06 2.78-6.74 2.79-2.68-.01-4.89-.92-6.74-2.79l-.31.3zm16.57 2.17l-.31-.3c-2.48 2.54-5.51 3.8-9.21 3.8-3.7-.01-6.73-1.26-9.2-3.8-2.47-2.55-3.7-5.62-3.7-9.32.01-3.7 1.23-6.77 3.7-9.32 2.48-2.54 5.51-3.8 9.2-3.8 3.67.01 6.7 1.27 9.19 3.82 2.48 2.56 3.71 5.63 3.72 9.3-.01 3.7-1.23 6.77-3.7 9.32l.31.3.31.3c2.62-2.69 3.95-6.03 3.94-9.92 0-3.87-1.33-7.2-3.96-9.91-2.64-2.72-5.94-4.09-9.81-4.09-3.89 0-7.21 1.36-9.82 4.07-2.63 2.7-3.95 6.04-3.94 9.93 0 3.89 1.32 7.23 3.94 9.93 2.62 2.71 5.93 4.07 9.82 4.07 3.89 0 7.2-1.36 9.83-4.07l-.31-.3zM254.42 82.54c-3.82 0-7.02-1.29-9.61-3.88-2.59-2.58-3.88-5.81-3.88-9.68s1.29-7.09 3.88-9.68 5.79-3.88 9.61-3.88c3.91 0 7.09 1.42 9.53 4.24l-2.32 2.25c-1.76-2.2-4.17-3.3-7.21-3.3-2.83 0-5.22.95-7.16 2.86-1.95 1.91-2.92 4.41-2.92 7.5s.97 5.59 2.92 7.5c1.94 1.91 4.33 2.86 7.16 2.86 3.12 0 5.77-1.26 7.98-3.77l2.32 2.32c-1.19 1.43-2.67 2.56-4.46 3.39-1.78.84-3.73 1.25-5.83 1.25z"/><path class="fil1" d="M254.42 82.54v-.43c-3.72-.01-6.79-1.25-9.3-3.75-2.51-2.51-3.75-5.6-3.75-9.37 0-3.77 1.24-6.86 3.75-9.37 2.51-2.51 5.58-3.75 9.3-3.76 3.81.01 6.84 1.35 9.21 4.09l.33-.28-.3-.31-2.32 2.25.3.31.34-.27c-1.83-2.3-4.4-3.47-7.55-3.46-2.93 0-5.45 1-7.46 2.99-2.04 1.99-3.06 4.63-3.05 7.81-.01 3.18 1.01 5.82 3.05 7.81 2.02 1.98 4.53 2.99 7.46 2.99 3.24.01 6.04-1.32 8.3-3.91l-.32-.28-.31.31 2.32 2.32.31-.31-.33-.27c-1.15 1.37-2.57 2.46-4.31 3.27-1.73.81-3.61 1.21-5.65 1.21v.86c2.16 0 4.17-.43 6.02-1.29 1.85-.85 3.38-2.03 4.61-3.5l.25-.3-2.6-2.6-.33-.33-.3.35c-2.14 2.44-4.65 3.62-7.65 3.62-2.73-.01-4.99-.91-6.86-2.74-1.86-1.83-2.78-4.19-2.79-7.19 0-3 .93-5.36 2.79-7.19 1.87-1.83 4.12-2.74 6.86-2.74 2.94.01 5.18 1.04 6.87 3.14l.3.37 2.67-2.58.29-.28-.27-.31c-2.51-2.92-5.85-4.4-9.86-4.39-3.92 0-7.25 1.34-9.91 4.01-2.67 2.66-4.01 6.02-4 9.98-.01 3.96 1.33 7.32 4 9.98 2.66 2.66 6 4.01 9.91 4v-.43zM278.2 81.96h-3.34V59.19h-7.25V56h17.84v3.19h-7.25z"/><path class="fil1" d="M278.2 81.96v-.44h-2.9V58.76h-7.25v-2.33h16.97v2.33h-7.25v23.2h.43v-.44.44h.43V59.62h7.25v-4.05h-18.7v4.05h7.25v22.77h4.2v-.43zM308.35 56l-9.82 21.89c-1.36 3.1-3.37 4.64-6.05 4.64-.8 0-1.66-.19-2.58-.58l.87-3.08c.56.32 1.14.47 1.74.47.77 0 1.37-.15 1.8-.45.42-.3.81-.86 1.18-1.65l.94-2.07L287.69 56h3.91l6.42 14.9h.14l6.27-14.9h3.92z"/><path class="fil1" d="M308.35 56l-.4-.18-9.82 21.9c-1.34 3-3.16 4.36-5.66 4.38-.73 0-1.53-.18-2.41-.55l-.17.4.42.12.87-3.08-.42-.12-.21.38c.61.35 1.27.53 1.95.53.83 0 1.52-.16 2.05-.53.52-.38.94-.99 1.32-1.82l.94-2.07.08-.18-8.54-18.74h2.96l6.41 14.9h.72l6.27-14.9h3.63v-.43l-.4-.18.4.18v-.43h-4.2l-6.38 15.16.4.17v-.43h-.14v.43l.4-.17-6.53-15.16h-4.87l8.93 19.61-.86 1.89c-.34.76-.71 1.25-1.04 1.48-.32.23-.82.37-1.55.37-.53 0-1.03-.13-1.53-.42l-.48-.27-1.02 3.61-.1.37.35.15c.96.4 1.87.61 2.74.61 2.87.01 5.07-1.71 6.45-4.9L309 55.57h-.67V56zM312.13 81.96V56h18.78v25.96h-3.34V59.19h-12.11v22.77z"/><path class="fil1" d="M312.13 81.96h.43V56.43h17.91v25.09H328V58.76h-12.97v22.76h-2.9v.44h.43-.43v.43h3.76V59.62h11.25v22.77h4.2V55.57h-19.65v26.82h.44zM336.85 81.96V56h3.33v11.13h12.98V56h3.34v25.96h-3.34V70.25h-12.98v11.71z"/><path class="fil1" d="M336.85 81.96h.43V56.43h2.47v11.13h13.84V56.43h2.48v25.09h-2.48V69.81h-13.84v11.71h-2.9v.44h.43-.43v.43h3.76V70.68h12.12v11.71h4.2V55.57h-4.2V66.7h-12.12V55.57h-4.19v26.82h.43zM367.1 76.43c1.92 1.94 4.27 2.92 7.05 2.92 2.78 0 5.13-.97 7.05-2.92 1.92-1.94 2.89-4.43 2.89-7.45 0-3.02-.96-5.5-2.89-7.45-1.92-1.94-4.27-2.92-7.05-2.92-2.78 0-5.13.97-7.05 2.92s-2.88 4.43-2.88 7.45c0 3.02.97 5.51 2.88 7.45zm16.57 2.17c-2.55 2.62-5.72 3.93-9.52 3.93-3.79 0-6.96-1.31-9.51-3.93s-3.82-5.83-3.82-9.62c0-3.79 1.27-7 3.82-9.62 2.55-2.62 5.72-3.94 9.51-3.94 3.77 0 6.94 1.32 9.5 3.95 2.56 2.64 3.84 5.84 3.84 9.61 0 3.79-1.28 7-3.82 9.62z"/><path class="fil1" d="M367.1 76.43l-.31.3c1.99 2.02 4.48 3.05 7.36 3.04 2.88.01 5.37-1.02 7.36-3.04 2-2.03 3.01-4.64 3.01-7.75 0-3.11-1.01-5.73-3.01-7.75-1.99-2.02-4.48-3.05-7.36-3.04-2.88-.01-5.37 1.02-7.36 3.04-2 2.02-3.01 4.64-3.01 7.75 0 3.11 1.01 5.73 3.01 7.75l.31-.3.31-.3c-1.83-1.87-2.75-4.22-2.76-7.15 0-2.93.92-5.28 2.76-7.15 1.85-1.87 4.06-2.78 6.74-2.79 2.68 0 4.89.92 6.74 2.79l.01.01-.01-.01c1.84 1.87 2.76 4.22 2.76 7.15 0 2.93-.92 5.28-2.76 7.15-1.85 1.87-4.06 2.78-6.74 2.79-2.68-.01-4.89-.92-6.74-2.79l-.31.3zm16.57 2.17l-.31-.3c-2.48 2.54-5.51 3.8-9.21 3.8-3.69-.01-6.73-1.26-9.2-3.8l-.01-.01.01.01c-2.48-2.55-3.7-5.62-3.7-9.32s1.23-6.77 3.7-9.32c2.47-2.54 5.51-3.8 9.2-3.8 3.67.01 6.7 1.27 9.19 3.82 2.48 2.56 3.71 5.63 3.72 9.3 0 3.7-1.23 6.77-3.7 9.32l.31.3.31.3c2.62-2.69 3.95-6.03 3.95-9.92 0-3.87-1.33-7.2-3.96-9.91-2.64-2.72-5.94-4.09-9.81-4.09-3.89 0-7.2 1.36-9.83 4.07-2.63 2.7-3.95 6.04-3.95 9.93 0 3.89 1.32 7.23 3.95 9.93 2.62 2.71 5.93 4.07 9.83 4.07 3.89 0 7.2-1.36 9.83-4.07l-.31-.3zM404.46 78.77h6.71c1.28 0 2.32-.45 3.12-1.34.8-.89 1.19-1.87 1.19-2.94 0-1.06-.41-2.03-1.23-2.92-.82-.88-1.9-1.32-3.23-1.32h-6.56v8.52zm0-11.64h6.06c1.26 0 2.27-.41 3.03-1.25.76-.83 1.14-1.74 1.14-2.74 0-.99-.37-1.9-1.11-2.72-.74-.82-1.71-1.24-2.92-1.24h-6.2v7.94zm-3.33 14.83V56h9.39c2.03 0 3.79.67 5.27 2.01 1.49 1.34 2.23 3.03 2.23 5.06 0 1.23-.32 2.32-.97 3.26-.64.94-1.49 1.66-2.55 2.14v.14c1.28.43 2.33 1.18 3.15 2.25.82 1.06 1.23 2.3 1.23 3.7 0 2.13-.78 3.89-2.34 5.29-1.56 1.4-3.4 2.1-5.53 2.1h-9.89z"/><path class="fil1" d="M404.46 78.77v.43h6.71c1.38.01 2.57-.5 3.44-1.49.86-.95 1.31-2.05 1.31-3.22 0-1.18-.47-2.27-1.35-3.21-.89-.97-2.12-1.47-3.54-1.46h-6.99v9.39h.43v-.43h.43v-8.09h6.13c1.24.01 2.17.4 2.91 1.19.76.82 1.11 1.67 1.12 2.62 0 .95-.35 1.82-1.08 2.65-.72.8-1.61 1.19-2.79 1.2h-6.71v.43h.43-.43zm0-11.64v.43h6.06c1.35.01 2.51-.46 3.35-1.39.82-.89 1.25-1.92 1.25-3.03 0-1.1-.42-2.13-1.22-3.01-.81-.92-1.93-1.38-3.24-1.38h-6.63v8.8h.43v-.43h.43v-7.51h5.77c1.11.01 1.93.36 2.59 1.09h.01-.01c.68.76 1 1.55 1 2.43 0 .88-.33 1.67-1.03 2.44-.68.74-1.55 1.1-2.71 1.11h-6.06v.43h.43-.43zm-3.33 14.83h.43V56.44h8.95c1.93 0 3.57.63 4.98 1.9 1.41 1.27 2.09 2.81 2.09 4.74 0 1.16-.3 2.15-.89 3.02-.6.88-1.38 1.53-2.38 1.99l-.25.12v.73l.29.1c1.21.41 2.18 1.11 2.96 2.1v.01-.01c.76.99 1.14 2.12 1.14 3.43 0 2.02-.72 3.64-2.2 4.97-1.49 1.33-3.21 1.99-5.24 1.99h-9.89v.43h.43-.43v.43h9.89c2.22 0 4.19-.74 5.82-2.21 1.64-1.47 2.49-3.38 2.48-5.61 0-1.49-.45-2.83-1.32-3.96a7.05 7.05 0 00-3.36-2.39l-.14.41h.43v-.14h-.43l.18.39a6.421 6.421 0 002.73-2.29c.69-1.02 1.04-2.2 1.04-3.51 0-2.13-.8-3.97-2.38-5.38l-.01-.01.01.01c-1.56-1.41-3.44-2.13-5.56-2.12h-9.82V82.4h.43v-.43z"/><g id="_2897884688"><path d="M47.88 58.37c-1.26 1.33-2 3.39-2 6.07v95.59c0 2.68.74 4.74 2 6.07l.32.31 53.55-53.55v-1.26L48.2 58.05l-.32.31z" fill="#71caf3" fill-rule="nonzero"/><path d="M119.6 130.73l-17.85-17.86v-1.26l17.85-17.85.4.23 21.15 12.02c6.04 3.43 6.04 9.05 0 12.48L120 130.51l-.41.23z" fill="url(#id0)"/><path d="M120.01 130.49l-18.26-18.26-53.87 53.87c1.99 2.11 5.28 2.37 8.98.26L120 130.48z" fill="url(#id1)"/><path d="M120.01 93.98L56.87 58.1c-3.7-2.1-6.99-1.84-8.98.27l53.87 53.87 18.26-18.26z" fill="url(#id2)"/></g></g></svg>